<svg width="714" height="235" viewBox="0 0 714 235" fill="none" xmlns="http://www.w3.org/2000/svg">
<mask id="mask0_2_88" style="mask-type:alpha" maskUnits="userSpaceOnUse" x="0" y="0" width="714" height="235">
<rect width="714" height="235" fill="#D9D9D9"/>
</mask>
<g mask="url(#mask0_2_88)">
<path d="M173.5 158C161.727 160.105 157.819 163.971 157.5 177.5" stroke="black"/>
<path d="M77 227V197V0H129V140V156.5H208C234.515 161.617 242.598 171.269 248.5 197V227H77Z" fill="#030303"/>
<path d="M77 197V227H248.5V197M77 197H248.5M77 197V0H129V140V156.5H208C234.515 161.617 242.598 171.269 248.5 197" stroke="white"/>
<path d="M170 158C158.227 160.105 154.319 163.971 154 177.5" stroke="white"/>
<path d="M186 158C174.227 160.105 170.319 163.971 170 177.5" stroke="white"/>
<path d="M200 158C188.227 160.105 184.319 163.971 184 177.5" stroke="white"/>
<path d="M103 143C111.369 161.1 116.586 164.284 126 168.5C133.482 173.382 132.073 176.118 126 181C104.978 198.834 91.1477 202.788 63.0001 199.5C48.454 194.881 43.249 191.081 49 184L77.5001 186.5L43.8721 178C25.3754 167.476 22.3402 162.805 29.0001 156.5L77.5001 165L25.5001 149C4.91264 136.723 -3.49409 129.458 2.00006 114L103 143Z" fill="white"/>
<path d="M63.0001 208.5L60.9 205M126 193.5V181M126 181C132.073 176.118 133.482 173.382 126 168.5C116.586 164.284 111.369 161.1 103 143L2.00006 114C-3.49409 129.458 4.91264 136.723 25.5001 149L77.5001 165L29.0001 156.5C22.3402 162.805 25.3754 167.476 43.8721 178L77.5001 186.5L49 184C43.249 191.081 48.454 194.881 63.0001 199.5C91.1477 202.788 104.978 198.834 126 181Z" stroke="black"/>
<path d="M273.614 154.273V227H264.807V154.273H273.614ZM334.538 177C333.756 174.609 332.726 172.466 331.448 170.572C330.193 168.655 328.69 167.021 326.938 165.672C325.21 164.322 323.245 163.293 321.043 162.582C318.842 161.872 316.427 161.517 313.799 161.517C309.49 161.517 305.572 162.63 302.045 164.855C298.517 167.08 295.712 170.359 293.628 174.692C291.545 179.024 290.503 184.339 290.503 190.636C290.503 196.934 291.557 202.249 293.664 206.581C295.771 210.913 298.624 214.192 302.222 216.418C305.821 218.643 309.869 219.756 314.367 219.756C318.534 219.756 322.203 218.868 325.376 217.092C328.572 215.293 331.057 212.76 332.833 209.493C334.632 206.202 335.532 202.331 335.532 197.881L338.231 198.449H316.356V190.636H344.055V198.449C344.055 204.438 342.776 209.647 340.219 214.074C337.686 218.501 334.182 221.934 329.708 224.372C325.257 226.787 320.144 227.994 314.367 227.994C307.928 227.994 302.27 226.479 297.393 223.449C292.539 220.419 288.752 216.11 286.029 210.523C283.33 204.936 281.981 198.307 281.981 190.636C281.981 184.884 282.75 179.711 284.289 175.118C285.851 170.501 288.053 166.571 290.894 163.328C293.735 160.085 297.097 157.599 300.979 155.871C304.862 154.143 309.135 153.278 313.799 153.278C317.634 153.278 321.209 153.858 324.523 155.018C327.861 156.155 330.833 157.777 333.437 159.884C336.065 161.967 338.254 164.464 340.006 167.376C341.758 170.265 342.966 173.473 343.628 177H334.538ZM352.688 227V154.273H361.495V186.659H400.273V154.273H409.08V227H400.273V194.472H361.495V227H352.688ZM416.284 162.085V154.273H470.83V162.085H447.96V227H439.154V162.085H416.284ZM499.647 227V154.273H543.255V162.085H508.453V186.659H539.988V194.472H508.453V227H499.647ZM551.888 227V154.273H595.78V162.085H560.695V186.659H593.507V194.472H560.695V219.188H596.348V227H551.888ZM605.204 227V154.273H649.096V162.085H614.011V186.659H646.823V194.472H614.011V219.188H649.664V227H605.204ZM654.542 162.085V154.273H709.087V162.085H686.218V227H677.411V162.085H654.542Z" fill="#fff"/>
</g>
</svg>
